<svg width="249" height="249" viewBox="0 0 249 249" fill="none" xmlns="http://www.w3.org/2000/svg">
<path d="M124.5 249C193.259 249 249 193.259 249 124.5C249 55.7405 193.259 0 124.5 0C55.7405 0 0 55.7405 0 124.5C0 193.259 55.7405 249 124.5 249Z" fill="url(#paint0_radial_503_22)"/>
<path d="M125.03 235.832C186.224 235.832 235.832 186.224 235.832 125.03C235.832 63.8361 186.224 14.2286 125.03 14.2286C63.8361 14.2286 14.2286 63.8361 14.2286 125.03C14.2286 186.224 63.8361 235.832 125.03 235.832Z" fill="url(#paint1_linear_503_22)"/>
<path d="M125.03 235.832C186.224 235.832 235.832 186.224 235.832 125.03C235.832 63.8361 186.224 14.2286 125.03 14.2286C63.8361 14.2286 14.2286 63.8361 14.2286 125.03C14.2286 186.224 63.8361 235.832 125.03 235.832Z" fill="url(#paint2_linear_503_22)"/>
<path d="M125.27 218.526C176.774 218.526 218.526 176.774 218.526 125.27C218.526 73.7663 176.774 32.0143 125.27 32.0143C73.7663 32.0143 32.0143 73.7663 32.0143 125.27C32.0143 176.774 73.7663 218.526 125.27 218.526Z" fill="url(#paint3_linear_503_22)"/>
<path fill-rule="evenodd" clip-rule="evenodd" d="M145.031 91.2943C138.555 101.673 127.46 109.886 122.587 112.198C122.857 112.102 136.691 108.832 147.397 99.9312C147.872 106.434 145.612 113.092 140.621 118.047C136.087 122.549 130.154 124.786 124.229 124.766C119.712 124.748 115.198 123.419 111.314 120.778C110.18 120.005 109.098 119.121 108.085 118.123C106.133 122.106 104.528 126.178 103.581 130.307C104.183 130.743 104.799 131.164 105.427 131.557C110.987 135.085 117.438 136.98 124.185 137.005C133.64 137.038 142.54 133.39 149.248 126.732C160.456 115.604 162.64 98.7668 155.769 85.4112C154.264 82.4776 152.322 79.7123 149.939 77.2166C149.686 82.1093 147.774 86.8961 145.031 91.2943Z" fill="white"/>
<path fill-rule="evenodd" clip-rule="evenodd" d="M99.3813 76.5075C92.6759 83.1708 88.9622 92.044 88.9288 101.494C88.9071 107.359 90.3064 113.013 92.966 118.062C94.4538 120.904 96.3491 123.554 98.6127 125.943C98.8143 121.003 100.095 115.846 102.882 110.372C104.529 107.138 106.7 103.793 109.49 100.311C109.49 100.311 105.914 102.13 101.646 106.293C101.32 104.727 101.163 103.13 101.169 101.539C101.191 95.6142 103.475 89.7021 108.009 85.1966L124.435 68.8886C136.126 80.6635 117.811 98.2839 108.089 118.123C106.137 122.106 104.532 126.178 103.585 130.307C102.669 134.3 102.368 138.349 102.967 142.428C103.073 138.764 103.975 135.139 105.431 131.557C106.903 127.918 108.951 124.328 111.319 120.777C120.17 107.498 133.501 94.8166 138.192 82.743C141.123 75.214 140.691 67.917 133.716 60.8608C133.698 60.8433 133.681 60.8245 133.663 60.8071L124.499 51.5786L99.3813 76.5075Z" fill="white"/>
<path d="M52.306 170V149.7H54.452V170H52.306ZM61.057 170V149.7H69.322C71.4873 149.7 73.382 150.135 75.006 151.005C76.6493 151.856 77.9253 153.045 78.834 154.572C79.7426 156.099 80.197 157.859 80.197 159.85C80.197 161.841 79.7426 163.601 78.834 165.128C77.9253 166.655 76.6493 167.854 75.006 168.724C73.382 169.575 71.4873 170 69.322 170H61.057ZM63.203 168.144H69.206C71.004 168.144 72.5603 167.796 73.875 167.1C75.209 166.385 76.2433 165.408 76.978 164.171C77.7126 162.914 78.08 161.474 78.08 159.85C78.08 158.207 77.7126 156.766 76.978 155.529C76.2433 154.292 75.209 153.325 73.875 152.629C72.5603 151.914 71.004 151.556 69.206 151.556H63.203V168.144ZM85.016 170V149.7H87.162V168.144H98.53V170H85.016ZM104.007 158.777H114.737V160.604H104.007V158.777ZM104.239 168.144H116.448V170H102.093V149.7H116.013V151.556H104.239V168.144ZM120.594 170V149.7H124.48L133.122 164.026H131.063L139.56 149.7H143.417L143.475 170H139.067L139.038 156.457H139.85L133.064 167.854H130.947L124.016 156.457H125.002V170H120.594ZM148.291 170V149.7H152.989V170H148.291ZM157.806 170V149.7H161.692L173.669 164.316H171.784V149.7H176.424V170H172.567L160.561 155.384H162.446V170H157.806ZM185.548 157.878H195.321V161.532H185.548V157.878ZM185.896 166.23H196.945V170H181.227V149.7H196.568V153.47H185.896V166.23Z" fill="white"/>
<path d="M88.662 200L84.486 187.4H86.916L90.642 198.794H89.436L93.306 187.4H95.466L99.228 198.794H98.058L101.874 187.4H104.106L99.93 200H97.446L94.008 189.722H94.656L91.164 200H88.662ZM108.172 192.638H114.436V194.564H108.172V192.638ZM108.352 198.038H115.462V200H106.012V187.4H115.21V189.362H108.352V198.038ZM118.071 200V187.4H123.975C125.487 187.4 126.639 187.7 127.431 188.3C128.223 188.888 128.619 189.68 128.619 190.676C128.619 191.348 128.463 191.924 128.151 192.404C127.839 192.872 127.419 193.238 126.891 193.502C126.375 193.754 125.811 193.88 125.199 193.88L125.523 193.232C126.231 193.232 126.867 193.364 127.431 193.628C127.995 193.88 128.439 194.252 128.763 194.744C129.099 195.236 129.267 195.848 129.267 196.58C129.267 197.66 128.853 198.5 128.025 199.1C127.197 199.7 125.967 200 124.335 200H118.071ZM120.411 198.164H124.191C125.067 198.164 125.739 198.02 126.207 197.732C126.675 197.444 126.909 196.982 126.909 196.346C126.909 195.722 126.675 195.266 126.207 194.978C125.739 194.678 125.067 194.528 124.191 194.528H120.231V192.71H123.723C124.539 192.71 125.163 192.566 125.595 192.278C126.039 191.99 126.261 191.558 126.261 190.982C126.261 190.394 126.039 189.956 125.595 189.668C125.163 189.38 124.539 189.236 123.723 189.236H120.411V198.164ZM139.799 200.18C138.911 200.18 138.041 200.054 137.189 199.802C136.349 199.538 135.641 199.178 135.065 198.722L136.073 196.904C136.529 197.276 137.081 197.576 137.729 197.804C138.377 198.032 139.055 198.146 139.763 198.146C140.603 198.146 141.257 197.978 141.725 197.642C142.193 197.294 142.427 196.826 142.427 196.238C142.427 195.662 142.211 195.206 141.779 194.87C141.347 194.534 140.651 194.366 139.691 194.366H138.539V192.764L142.139 188.48L142.445 189.362H135.677V187.4H144.263V188.966L140.663 193.25L139.439 192.53H140.141C141.689 192.53 142.847 192.878 143.615 193.574C144.395 194.258 144.785 195.14 144.785 196.22C144.785 196.928 144.605 197.582 144.245 198.182C143.885 198.782 143.333 199.268 142.589 199.64C141.857 200 140.927 200.18 139.799 200.18ZM147.719 200.126C147.311 200.126 146.963 199.988 146.675 199.712C146.387 199.424 146.243 199.064 146.243 198.632C146.243 198.176 146.387 197.816 146.675 197.552C146.963 197.276 147.311 197.138 147.719 197.138C148.127 197.138 148.475 197.276 148.763 197.552C149.051 197.816 149.195 198.176 149.195 198.632C149.195 199.064 149.051 199.424 148.763 199.712C148.475 199.988 148.127 200.126 147.719 200.126ZM157.162 200.18C156.178 200.18 155.272 200.018 154.444 199.694C153.616 199.37 152.896 198.92 152.284 198.344C151.672 197.756 151.198 197.072 150.862 196.292C150.526 195.5 150.358 194.636 150.358 193.7C150.358 192.764 150.526 191.906 150.862 191.126C151.198 190.334 151.672 189.65 152.284 189.074C152.896 188.486 153.616 188.03 154.444 187.706C155.272 187.382 156.172 187.22 157.144 187.22C158.128 187.22 159.028 187.382 159.844 187.706C160.672 188.03 161.392 188.486 162.004 189.074C162.616 189.65 163.09 190.334 163.426 191.126C163.762 191.906 163.93 192.764 163.93 193.7C163.93 194.636 163.762 195.5 163.426 196.292C163.09 197.084 162.616 197.768 162.004 198.344C161.392 198.92 160.672 199.37 159.844 199.694C159.028 200.018 158.134 200.18 157.162 200.18ZM157.144 198.128C157.78 198.128 158.368 198.02 158.908 197.804C159.448 197.588 159.916 197.282 160.312 196.886C160.708 196.478 161.014 196.01 161.23 195.482C161.458 194.942 161.572 194.348 161.572 193.7C161.572 193.052 161.458 192.464 161.23 191.936C161.014 191.396 160.708 190.928 160.312 190.532C159.916 190.124 159.448 189.812 158.908 189.596C158.368 189.38 157.78 189.272 157.144 189.272C156.508 189.272 155.92 189.38 155.38 189.596C154.852 189.812 154.384 190.124 153.976 190.532C153.58 190.928 153.268 191.396 153.04 191.936C152.824 192.464 152.716 193.052 152.716 193.7C152.716 194.336 152.824 194.924 153.04 195.464C153.268 196.004 153.58 196.478 153.976 196.886C154.372 197.282 154.84 197.588 155.38 197.804C155.92 198.02 156.508 198.128 157.144 198.128Z" fill="white"/>
<defs>
<radialGradient id="paint0_radial_503_22" cx="0" cy="0" r="1" gradientUnits="userSpaceOnUse" gradientTransform="translate(124.501 124.502) scale(177.8)">
<stop stop-color="#F15A60"/>
<stop offset="0.995" stop-color="#F15C62" stop-opacity="0"/>
</radialGradient>
<linearGradient id="paint1_linear_503_22" x1="159.968" y1="125.029" x2="357.418" y2="125.029" gradientUnits="userSpaceOnUse">
<stop offset="0.005" stop-color="#BA354B"/>
<stop offset="1" stop-color="#EF364B"/>
</linearGradient>
<linearGradient id="paint2_linear_503_22" x1="208.006" y1="208.006" x2="35.8148" y2="35.8141" gradientUnits="userSpaceOnUse">
<stop offset="0.005" stop-color="#D41872"/>
<stop offset="1" stop-color="#F16568"/>
</linearGradient>
<linearGradient id="paint3_linear_503_22" x1="71.3537" y1="78.9975" x2="202.213" y2="191.306" gradientUnits="userSpaceOnUse">
<stop offset="0.005" stop-color="#D41872"/>
<stop offset="1" stop-color="#F16568"/>
</linearGradient>
</defs>
</svg>
